<svg width="100" height="100" viewBox="0 0 100 100" fill="none" xmlns="http://www.w3.org/2000/svg">
<g clip-path="url(#clip0_39_1242)">
<path d="M72.3248 87.853C72.3248 88.8036 71.5069 89.6482 70.5296 89.6482C69.5004 89.6482 68.7344 88.8036 68.7344 87.853C68.7344 86.8764 69.5004 86.0578 70.5296 86.0578C71.5069 86.0578 72.3248 86.8764 72.3248 87.853ZM71.7968 83.154C71.7968 83.8666 71.0308 84.1573 70.5029 84.1573C69.817 84.1573 69.2097 83.8666 69.2097 83.154C69.2097 79.6697 68.8664 75.0234 68.8664 71.5383C68.8664 70.6144 69.5789 70.0864 70.5029 70.0864C71.4008 70.0864 72.1668 70.6144 72.1668 71.5383C72.1668 75.0234 71.7968 79.6697 71.7968 83.154Z" fill="url(#paint0_radial_39_1242)"/>
<path d="M90.7431 79.6721C90.7431 68.463 81.6245 59.3444 70.4154 59.3444C68.1395 59.3444 65.9507 59.7205 63.906 60.4132C62.7669 59.1269 61.4936 57.9627 60.1096 56.9449C59.7602 56.6878 59.3978 56.436 59.0316 56.1965C59.0247 56.1919 59.0186 56.1881 59.0117 56.1843L49.2492 49.9999L59.0117 43.8155C59.0186 43.8117 59.0247 43.8079 59.0308 43.8033C65.9072 39.2982 70.0118 31.7008 70.0118 23.4802V11.4311H70.8342C72.8942 11.4311 74.5703 9.75492 74.5703 7.69423V3.73611C74.5703 1.67617 72.8942 0 70.8342 0H12.9158C10.8559 0 9.17969 1.67617 9.17969 3.73611V7.69499C9.17969 9.75492 10.8559 11.4311 12.9158 11.4311H13.7382V23.4802C13.7382 31.7008 17.8436 39.2982 24.7192 43.8033C24.7253 43.8079 24.7322 43.8117 24.7383 43.8163L34.5016 49.9999L24.7383 56.1843C24.7322 56.1881 24.7253 56.1919 24.7192 56.1965C17.8436 60.7016 13.7382 68.299 13.7382 76.5196V88.5687H12.9158C10.8559 88.5687 9.17969 90.2449 9.17969 92.3056V96.2637C9.17969 98.3236 10.8559 99.9998 12.9158 99.9998H70.8342C70.9357 99.9998 71.0387 99.9952 71.1425 99.9868C82.0158 99.6031 90.7431 90.6378 90.7431 79.6721ZM12.1094 7.69423V3.73611C12.1094 3.29131 12.471 2.92968 12.9158 2.92968H70.8342C71.279 2.92968 71.6407 3.29131 71.6407 3.73611V7.69499C71.6407 8.13978 71.279 8.50142 70.8342 8.50142H12.9158C12.471 8.50142 12.1094 8.13978 12.1094 7.69423ZM26.3153 41.3467C21.6217 38.2674 18.3975 33.5479 17.1928 28.2073H23.6442C24.4537 28.2073 25.1091 27.5512 25.1091 26.7425C25.1091 25.933 24.4537 25.2777 23.6442 25.2777H16.7435C16.6939 24.6833 16.6687 24.0837 16.6687 23.4802V11.4311H67.0821V23.4802C67.0821 24.0837 67.0569 24.6833 67.0073 25.2777H29.5036C28.6949 25.2777 28.0387 25.933 28.0387 26.7425C28.0387 27.5512 28.6949 28.2073 29.5036 28.2073H66.5572C65.3533 33.5487 62.1291 38.2674 57.4347 41.3467L47.6218 47.5631C47.2274 47.8126 46.9085 48.1452 46.6804 48.5312H37.0704C36.8423 48.1452 36.5226 47.8126 36.1282 47.5631L26.3153 41.3467ZM12.9158 97.0701C12.471 97.0701 12.1094 96.7085 12.1094 96.2637V92.3048C12.1094 91.86 12.471 91.4984 12.9158 91.4984H48.7922C49.6017 91.4984 50.257 90.8423 50.257 90.0335C50.257 89.2248 49.6017 88.5687 48.7922 88.5687H16.6679V82.2073H45.7191C46.5278 82.2073 47.1839 81.552 47.1839 80.7425C47.1839 79.9338 46.5278 79.2776 45.7191 79.2776H16.6679V76.5196C16.6679 69.2938 20.2743 62.6158 26.3153 58.6531L36.1282 52.4367C36.5249 52.1857 36.8461 51.85 37.075 51.4609H46.6758C46.9039 51.85 47.2251 52.1857 47.6218 52.4367L57.4347 58.6524C57.7537 58.8622 58.0695 59.0812 58.3739 59.3055C59.3276 60.0066 60.221 60.7863 61.045 61.6355C54.5394 65.029 50.0877 71.8405 50.0877 79.6721C50.0877 87.0398 54.0275 93.5042 59.9112 97.0701H12.9158ZM71.0791 97.0579C71.0601 97.0579 70.4421 97.0701 70.4154 97.0701C60.8222 97.0701 53.0173 89.2653 53.0173 79.6721C53.0173 70.0789 60.8222 62.274 70.4154 62.274C80.0086 62.274 87.8134 70.0789 87.8134 79.6721C87.8134 89.0433 80.3656 96.7077 71.0791 97.0579Z" fill="url(#paint1_radial_39_1242)"/>
<path d="M70.4155 64.5894C62.0995 64.5894 55.333 71.3559 55.333 79.6719C55.333 87.9887 62.0995 94.7544 70.4155 94.7544C78.7323 94.7544 85.498 87.9887 85.498 79.6719C85.498 71.3559 78.7323 64.5894 70.4155 64.5894ZM70.4155 91.8247C63.7146 91.8247 58.2627 86.3728 58.2627 79.6719C58.2627 72.971 63.7146 67.519 70.4155 67.519C77.1164 67.519 82.5684 72.971 82.5684 79.6719C82.5684 86.3728 77.1164 91.8247 70.4155 91.8247Z" fill="url(#paint2_radial_39_1242)"/>
</g>
<defs>
<radialGradient id="paint0_radial_39_1242" cx="0" cy="0" r="1" gradientUnits="userSpaceOnUse" gradientTransform="translate(70.5296 79.8673) rotate(90) scale(10.5875 1.94325)">
<stop stop-color="#6496AE"/>
<stop offset="0.0001" stop-color="#6496AE"/>
<stop offset="1" stop-color="#97BDCF"/>
</radialGradient>
<radialGradient id="paint1_radial_39_1242" cx="0" cy="0" r="1" gradientUnits="userSpaceOnUse" gradientTransform="translate(49.9614 49.9999) rotate(90) scale(54.1236 44.1451)">
<stop stop-color="#6496AE"/>
<stop offset="0.0001" stop-color="#6496AE"/>
<stop offset="1" stop-color="#97BDCF"/>
</radialGradient>
<radialGradient id="paint2_radial_39_1242" cx="0" cy="0" r="1" gradientUnits="userSpaceOnUse" gradientTransform="translate(70.4155 79.6719) rotate(90) scale(16.3264)">
<stop stop-color="#6496AE"/>
<stop offset="0.0001" stop-color="#6496AE"/>
<stop offset="1" stop-color="#97BDCF"/>
</radialGradient>
<clipPath id="clip0_39_1242">
<rect width="100" height="100" fill="white"/>
</clipPath>
</defs>
</svg>
