<svg width="90" height="100" viewBox="0 0 90 100" fill="none" xmlns="http://www.w3.org/2000/svg">
<g clip-path="url(#clip0_41_1272)">
<path d="M36.9697 13.7632C37.7787 13.7632 38.4346 13.1075 38.4346 12.2983C38.4346 11.7954 39.0775 11.2349 40 11.2349C40.9225 11.2349 41.5654 11.7954 41.5654 12.2983C41.5654 13.1075 42.2211 13.7632 43.0303 13.7632C43.8395 13.7632 44.4951 13.1075 44.4951 12.2983C44.4951 10.0966 42.4787 8.30518 40 8.30518C37.5215 8.30518 35.5049 10.0966 35.5049 12.2983C35.5049 13.1073 36.1607 13.7632 36.9697 13.7632Z" fill="url(#paint0_radial_41_1272)"/>
<path d="M79.9858 92.1941L78.8093 74.1941C78.3587 67.3038 73.8224 61.48 67.2517 59.3571C67.1503 59.3243 64.4841 58.7363 55.3364 56.6988L48.6741 51.3243L48.6669 49.9821C49.5392 49.3052 50.3089 48.6312 51.1585 47.896C54.072 45.387 55.905 41.765 56.2956 37.8155C58.4813 37.2068 60.0897 35.1982 60.0897 32.8208C60.0833 30.0214 60.0698 24.187 60.0626 21.1292L64.8009 16.648C66.7892 15.1273 66.2163 12.1361 63.7536 11.3726C56.0396 8.98078 50.1194 5.60774 43.0681 0.940744C41.1642 -0.319413 38.6806 -0.313749 36.7817 0.958908C29.7419 5.67512 23.8358 9.08606 16.1546 11.5144C13.6989 12.2911 13.1368 15.2843 15.1374 16.7962L19.8997 21.2417C19.8997 21.2695 19.9099 32.798 19.9101 32.821C19.9101 35.1984 21.5185 37.207 23.7042 37.8157C24.0946 41.7652 25.9276 45.3874 28.8413 47.8962C29.6874 48.6284 30.4593 49.3046 31.3329 49.9823C31.3329 49.9823 31.328 50.0956 31.3257 51.3245L24.6636 56.6989C15.5571 58.7273 12.8491 59.3245 12.7481 59.3573C6.17744 61.4802 1.64092 67.304 1.19053 74.1943L0.0139672 92.1943C-0.2624 96.4154 3.09483 99.9999 7.32569 99.9999H72.6735C76.9042 99.9999 80.2616 96.4159 79.9858 92.1941ZM74.1853 68.5689C73.9759 68.8161 73.7038 69.6396 72.7028 69.8509C72.2194 69.9525 71.7251 69.8603 71.311 69.5904L64.5839 65.2054C64.1698 64.9355 63.8858 64.5206 63.7837 64.0372C63.5577 62.9646 64.2843 62.4027 64.6173 61.7659C64.6505 61.782 70.7728 62.4087 74.1853 68.5689ZM34.255 56.0095L34.2468 51.9093C35.9226 52.8105 37.8372 53.4655 39.9835 53.4894H39.9997H40.0161C42.1624 53.4654 44.0771 52.8103 45.7528 51.9093L45.7446 56.0095L39.9997 66.2911L34.255 56.0095ZM43.6249 65.8091L48.4878 57.1056C48.6099 56.8872 48.6739 56.6411 48.6739 56.3911V55.0886L53.2874 58.8105L53.7007 62.9107C53.7569 63.4693 53.2989 63.9398 52.7569 63.9126C51.3284 63.9675 48.622 63.27 45.3228 64.9466L43.6249 65.8091ZM17.0376 14.3077C25.0513 11.7743 31.1573 8.25305 38.412 3.3925C39.328 2.77903 40.5308 2.77473 41.4511 3.38371C48.7181 8.19348 54.8386 11.6755 62.886 14.1706C63.0013 14.2064 62.9687 14.348 62.8517 14.4587L58.1255 18.9284C49.6231 17.4087 40.9523 16.9765 32.3401 17.6489C31.5337 17.712 30.931 18.4171 30.9939 19.2236C31.0567 20.0302 31.7622 20.6339 32.5685 20.57C40.7702 19.929 49.0269 20.3175 57.1347 21.7255L57.1409 24.0155C45.7442 22.0929 34.2218 22.1245 22.8374 24.1107L22.831 21.8206C23.8378 21.6402 24.8515 21.4745 25.8577 21.3261C26.6581 21.2081 27.2112 20.4634 27.0931 19.663C26.9751 18.8626 26.2321 18.3101 25.43 18.4277C24.2317 18.6044 23.0235 18.8064 21.8216 19.0279L17.0726 14.5948C17.0149 14.5409 16.9226 14.3441 17.0376 14.3077ZM55.6435 26.7405L55.5788 26.8079C54.2138 28.2308 52.3001 29.0499 50.3282 29.0556L29.6774 29.113C29.6706 29.113 29.6642 29.113 29.6573 29.113C27.6927 29.113 25.7829 28.305 24.4146 26.8945L24.3497 26.8277C34.7403 25.1249 45.2423 25.0954 55.6435 26.7405ZM30.7526 45.6759C28.1642 43.4472 26.6355 40.1058 26.5581 36.5085C26.5411 35.712 25.8905 35.0751 25.0937 35.0751C23.8507 35.0751 22.8394 34.0638 22.8394 32.8208V29.4359C24.7046 31.0995 27.148 32.0425 29.6573 32.0425H29.6856L50.3364 31.9851C52.8521 31.978 55.2981 31.0232 57.1597 29.348V32.8208C57.1597 34.0638 56.1483 35.0751 54.9054 35.0751C54.1087 35.0751 53.4579 35.712 53.4409 36.5085C53.3636 40.1058 51.8349 43.4472 49.2466 45.6759C46.4946 48.0589 43.6976 50.5111 39.9993 50.5597C36.3013 50.5111 33.4874 48.0441 30.7526 45.6759ZM31.5112 57.1054L36.3743 65.8089L34.6763 64.9462C31.3659 63.2644 28.6204 63.9702 27.2423 63.9122C26.6962 63.939 26.2423 63.4669 26.2983 62.9103L26.7116 58.8101L31.3251 55.0882V56.3907C31.3253 56.6409 31.3894 56.887 31.5112 57.1054ZM15.3819 61.7659C15.7015 62.3767 16.4409 62.9685 16.2157 64.0372C16.1138 64.5208 15.8296 64.9357 15.4155 65.2054L8.68838 69.5904C8.27432 69.8605 7.77959 69.9523 7.29658 69.8509C6.28897 69.6382 6.01807 68.8099 5.81397 68.5689C9.23018 62.4023 15.3388 61.7868 15.3819 61.7659ZM72.6737 97.0702H64.9874L64.3382 87.1384C64.2853 86.331 63.5892 85.7198 62.7808 85.7722C61.9735 85.8251 61.3618 86.5222 61.4146 87.3296L62.0513 97.0704H44.397V92.0271C44.397 91.2179 43.7413 90.5622 42.9321 90.5622C42.123 90.5622 41.4673 91.2179 41.4673 92.0271V97.0702H38.5319V81.7189C38.5319 80.9097 37.8761 80.254 37.0671 80.254C36.2581 80.254 35.6022 80.9097 35.6022 81.7189V97.0702H17.948L18.5847 87.3294C18.6376 86.522 18.0259 85.8249 17.2185 85.772C16.4114 85.7212 15.714 86.331 15.6612 87.1382L15.012 97.0702H7.32569C4.79639 97.0702 2.77002 94.9392 2.93701 92.3853L4.11358 74.3853C4.17451 73.4517 4.32842 72.5425 4.56377 71.6659C5.45791 72.4362 6.57705 72.822 7.6878 72.822C8.6044 72.822 9.50244 72.5572 10.2882 72.0448L17.0151 67.6599C18.0849 66.9628 18.8188 65.8907 19.0821 64.6415C19.3423 63.4079 19.1116 62.1478 18.4347 61.0866L23.6546 59.9249L23.3833 62.6169C23.1485 64.9474 25.0392 66.9388 27.361 66.84C28.8966 66.8831 30.8954 66.312 33.3491 67.5585L35.6021 68.7032V74.871C35.6021 75.6802 36.2579 76.3359 37.0669 76.3359C37.8759 76.3359 38.5317 75.6802 38.5317 74.871V70.1919C40.0841 70.9152 39.7696 70.9827 41.4671 70.1919V85.179C41.4671 85.9882 42.1228 86.6439 42.9319 86.6439C43.7411 86.6439 44.3968 85.9882 44.3968 85.179V68.703L46.6497 67.5583C49.113 66.3071 51.0536 66.8843 52.638 66.8398C54.9671 66.9349 56.8501 64.9431 56.6153 62.6167L56.344 59.9247L61.564 61.0864C60.887 62.1478 60.6567 63.4079 60.9165 64.6413C61.18 65.8905 61.914 66.9626 62.9835 67.6597L69.7106 72.0446C70.7544 72.7251 72.0288 72.9874 73.3065 72.7173C74.1065 72.5488 74.8323 72.1851 75.4351 71.6659C75.6704 72.5425 75.8241 73.4515 75.8851 74.3851L77.0616 92.3851C77.2278 94.9148 75.228 97.0702 72.6737 97.0702Z" fill="url(#paint1_radial_41_1272)"/>
<path d="M59.7114 76.0119C60.4529 75.2717 60.4023 74.05 59.5964 73.3742L58.5708 72.5146C58.157 72.1678 57.5407 71.9434 57.0005 71.9434H51.0675C50.5273 71.9434 49.9109 72.1676 49.4972 72.5146L48.4718 73.3742C47.6681 74.0478 47.613 75.2693 48.3558 76.0111C49.3415 76.9969 48.0673 78.2357 47.6786 79.3393C46.6761 81.5178 47.7238 84.0758 49.9368 84.9422C50.6724 85.2621 51.6644 85.4436 52.7107 86.3059C53.4773 86.9379 54.59 86.9373 55.3575 86.3057C56.4056 85.4418 57.3862 85.2662 58.1312 84.9422C60.3427 84.0764 61.3927 81.5189 60.3892 79.3387C59.9935 78.2172 58.7302 76.9936 59.7114 76.0119ZM54.0341 83.635C51.6632 81.9801 49.1976 82.54 50.6747 79.8699C51.1945 78.9309 52.312 76.9113 51.1859 74.9219L51.2443 74.873H56.8237L56.8827 74.9223C55.7601 76.9105 56.8775 78.9348 57.397 79.876C58.8667 82.5426 56.4064 81.9789 54.0341 83.635Z" fill="url(#paint2_radial_41_1272)"/>
</g>
<defs>
<radialGradient id="paint0_radial_41_1272" cx="0" cy="0" r="1" gradientUnits="userSpaceOnUse" gradientTransform="translate(40 11.0342) rotate(90) scale(2.95408 4.86585)">
<stop stop-color="#6496AE"/>
<stop offset="0.0001" stop-color="#6496AE"/>
<stop offset="1" stop-color="#97BDCF"/>
</radialGradient>
<radialGradient id="paint1_radial_41_1272" cx="0" cy="0" r="1" gradientUnits="userSpaceOnUse" gradientTransform="translate(39.9999 50) rotate(90) scale(54.1237 43.3009)">
<stop stop-color="#6496AE"/>
<stop offset="0.0001" stop-color="#6496AE"/>
<stop offset="1" stop-color="#97BDCF"/>
</radialGradient>
<radialGradient id="paint2_radial_41_1272" cx="0" cy="0" r="1" gradientUnits="userSpaceOnUse" gradientTransform="translate(54.034 79.3615) rotate(90) scale(8.02994 7.29278)">
<stop stop-color="#6496AE"/>
<stop offset="0.0001" stop-color="#6496AE"/>
<stop offset="1" stop-color="#97BDCF"/>
</radialGradient>
<clipPath id="clip0_41_1272">
<rect width="90" height="100" fill="white"/>
</clipPath>
</defs>
</svg>
