<svg width="92" height="100" viewBox="0 0 92 100" fill="none" xmlns="http://www.w3.org/2000/svg">
<g clip-path="url(#clip0_39_1201)">
<path d="M51.5964 58.8711H15.0168C14.207 58.8711 13.5508 59.5275 13.5508 60.3371C13.5508 61.1469 14.2072 61.8031 15.0168 61.8031H51.5964C52.4062 61.8031 53.0624 61.1467 53.0624 60.3371C53.0624 59.5273 52.4062 58.8711 51.5964 58.8711Z" fill="url(#paint0_radial_39_1201)"/>
<path d="M40.2374 65.7715H15.0168C14.207 65.7715 13.5508 66.4279 13.5508 67.2375C13.5508 68.0471 14.2072 68.7035 15.0168 68.7035H40.2374C41.0472 68.7035 41.7035 68.0471 41.7035 67.2375C41.7035 66.4279 41.0472 65.7715 40.2374 65.7715Z" fill="url(#paint1_radial_39_1201)"/>
<path d="M82.7844 30.0365C83.5942 30.0365 84.2504 29.38 84.2504 28.5705V15.3088C84.2504 14.4992 83.5942 13.8427 82.7844 13.8427H66.1589V1.46601C66.1589 0.656444 65.5026 0 64.6928 0H1.21601C0.406249 0 -0.25 0.656444 -0.25 1.46601V51.8179C-0.25 52.6274 0.406249 53.2839 1.21601 53.2839C2.02578 53.2839 2.68203 52.6274 2.68203 51.8179V2.93222H63.2268V70.6909H52.1587C51.3489 70.6909 50.6927 71.3473 50.6927 72.1569V83.225L2.68222 83.2252V57.6821C2.68222 56.8726 2.02597 56.2161 1.21621 56.2161C0.406444 56.2161 -0.249805 56.8726 -0.249805 57.6821V84.6912C-0.249805 85.501 0.406444 86.1573 1.21621 86.1573H17.8418V98.5338C17.8418 99.3436 18.498 99.9998 19.3078 99.9998H70.2506C70.2626 99.9998 70.2741 99.9984 70.2858 99.9981C70.3217 99.9971 70.3577 99.9963 70.3934 99.9928C70.4213 99.99 70.4489 99.985 70.4764 99.9805C70.4958 99.9775 70.5155 99.9756 70.5348 99.9717C70.5643 99.9658 70.593 99.9576 70.6219 99.9502C70.6391 99.9457 70.6565 99.9424 70.6733 99.9373C70.7012 99.9289 70.7286 99.9182 70.7559 99.908C70.7733 99.9016 70.7909 99.8963 70.8081 99.8893C70.8344 99.8783 70.8598 99.8654 70.8854 99.8531C70.9028 99.8447 70.9206 99.8375 70.9378 99.8285C70.9649 99.8141 70.9911 99.7975 71.0172 99.7813C71.0317 99.7723 71.0467 99.7645 71.061 99.7551C71.0963 99.7317 71.1303 99.7059 71.1637 99.6793C71.168 99.6758 71.1727 99.6731 71.177 99.6693C71.2149 99.6385 71.2514 99.6057 71.2864 99.5707L83.8205 87.0364C83.867 86.9899 83.9086 86.9397 83.9483 86.8877C83.9578 86.8752 83.9672 86.8627 83.9762 86.85C84.0133 86.7979 84.0481 86.7444 84.078 86.6881C84.0793 86.6856 84.0803 86.6828 84.0817 86.6803C84.11 86.6264 84.1338 86.5703 84.1551 86.5133C84.1608 86.4985 84.166 86.4836 84.1711 86.4686C84.1912 86.4088 84.209 86.3479 84.2215 86.2858C84.2215 86.2854 84.2217 86.285 84.2217 86.2846C84.2338 86.2235 84.2407 86.161 84.245 86.0983C84.2461 86.0819 84.2469 86.0657 84.2473 86.0492C84.2479 86.0326 84.2496 86.0164 84.2496 85.9998V34.4347C84.2496 33.6251 83.5934 32.9687 82.7836 32.9687C81.9739 32.9687 81.3176 33.6251 81.3176 34.4347V84.5334H70.2501C69.4403 84.5334 68.784 85.1899 68.784 85.9994V97.0676H20.7734V86.1571H52.1587C52.1706 86.1571 52.1821 86.1555 52.1938 86.1553C52.2298 86.1545 52.2657 86.1535 52.3015 86.15C52.3294 86.1473 52.3569 86.1422 52.3845 86.1377C52.4038 86.1348 52.4235 86.1328 52.4429 86.1289C52.4724 86.1231 52.5011 86.1149 52.53 86.1073C52.547 86.1028 52.5645 86.0994 52.5813 86.0944C52.6093 86.086 52.6366 86.0752 52.664 86.0651C52.6813 86.0586 52.6989 86.0534 52.7161 86.0463C52.7425 86.0354 52.7679 86.0225 52.7935 86.0102C52.8108 86.0018 52.8286 85.9946 52.8458 85.9856C52.8729 85.9711 52.8991 85.9545 52.9253 85.9383C52.9397 85.9293 52.9548 85.9215 52.969 85.9121C53.0044 85.8887 53.0384 85.8631 53.0718 85.8364C53.0761 85.8328 53.0808 85.8299 53.0851 85.8266C53.1229 85.7957 53.1595 85.7627 53.1944 85.728L65.7286 73.1936C65.7751 73.1471 65.8169 73.0969 65.8565 73.045C65.8661 73.0327 65.8753 73.0202 65.8842 73.0077C65.9215 72.9555 65.9563 72.9018 65.9862 72.8454C65.9874 72.843 65.9883 72.8407 65.9895 72.8383C66.018 72.7842 66.0419 72.728 66.0634 72.6706C66.0688 72.6557 66.0743 72.6411 66.0792 72.626C66.0995 72.5663 66.1173 72.5055 66.1296 72.443C66.1296 72.4426 66.1296 72.4422 66.1298 72.4419C66.1419 72.3807 66.1487 72.318 66.153 72.2553C66.1542 72.2389 66.1547 72.2227 66.1553 72.2063C66.1559 72.1897 66.1579 72.1735 66.1579 72.1569V16.7748H81.3174V28.5705C81.3184 29.38 81.9747 30.0365 82.7844 30.0365ZM71.7163 87.4655H79.2452L71.7163 94.9944V87.4655ZM53.6245 81.1518V73.6229H61.1534L53.6245 81.1518Z" fill="url(#paint2_radial_39_1201)"/>
<path d="M43.374 24.2007C42.6209 23.4476 41.6193 23.0327 40.5543 23.0327C39.4892 23.0329 38.4879 23.4478 37.7345 24.2009L29.0842 32.8513L26.1687 29.9358C25.4158 29.1827 24.4142 28.7679 23.349 28.7679C22.2838 28.7679 21.2824 29.1827 20.5293 29.9358C18.9746 31.4907 18.9746 34.0204 20.5293 35.5751L26.2646 41.3104C27.018 42.0635 28.0193 42.4784 29.0842 42.4784C30.1494 42.4784 31.1508 42.0633 31.9039 41.3102L43.3738 29.8403C44.1269 29.0872 44.5419 28.0856 44.5419 27.0206C44.5419 25.9552 44.1273 24.9538 43.374 24.2007ZM41.3004 27.7667L29.8303 39.2368C29.6308 39.4362 29.366 39.546 29.0842 39.546C28.8064 39.546 28.5344 39.4331 28.3381 39.237L22.6029 33.5018C22.1912 33.0901 22.1912 32.4204 22.6029 32.0091C22.8023 31.8096 23.0672 31.7001 23.349 31.7001C23.6309 31.7001 23.8959 31.8096 24.0951 32.0091L28.0472 35.9612C28.3222 36.2362 28.6951 36.3907 29.084 36.3907C29.4728 36.3907 29.8455 36.2362 30.1207 35.9612L39.808 26.2739C40.0074 26.0745 40.2724 25.9647 40.5543 25.9647C40.8359 25.9647 41.1009 26.0745 41.3004 26.2739C41.4998 26.4733 41.6093 26.7384 41.6093 27.0202C41.6097 27.3022 41.4998 27.5673 41.3004 27.7667Z" fill="url(#paint3_radial_39_1201)"/>
<path d="M31.9513 10.9282C27.4523 10.9282 23.1422 12.3013 19.4869 14.8989C18.8269 15.3679 18.6721 16.2831 19.141 16.9433C19.6099 17.6032 20.5248 17.7581 21.1853 17.289C24.3416 15.0458 28.0644 13.8602 31.9511 13.8602C42.2111 13.8602 50.5583 22.2075 50.5583 32.4674C50.5583 42.7274 42.2111 51.0748 31.9511 51.0748C21.6912 51.0748 13.3439 42.7276 13.3439 32.4674C13.3439 28.2967 14.692 24.3553 17.2424 21.0692C17.739 20.4296 17.623 19.5085 16.9834 19.0122C16.3439 18.5159 15.423 18.6317 14.9264 19.2714C11.973 23.0764 10.4121 27.6397 10.4121 32.4674C10.4121 44.3444 20.0746 54.0069 31.9513 54.0069C43.8281 54.0069 53.4905 44.3444 53.4905 32.4674C53.4905 20.5905 43.8283 10.9282 31.9513 10.9282Z" fill="url(#paint4_radial_39_1201)"/>
</g>
<defs>
<radialGradient id="paint0_radial_39_1201" cx="0" cy="0" r="1" gradientUnits="userSpaceOnUse" gradientTransform="translate(33.3066 60.3371) rotate(90) scale(1.58692 21.3852)">
<stop stop-color="#6496AE"/>
<stop offset="0.0001" stop-color="#6496AE"/>
<stop offset="1" stop-color="#97BDCF"/>
</radialGradient>
<radialGradient id="paint1_radial_39_1201" cx="0" cy="0" r="1" gradientUnits="userSpaceOnUse" gradientTransform="translate(27.6271 67.2375) rotate(90) scale(1.58692 15.2373)">
<stop stop-color="#6496AE"/>
<stop offset="0.0001" stop-color="#6496AE"/>
<stop offset="1" stop-color="#97BDCF"/>
</radialGradient>
<radialGradient id="paint2_radial_39_1201" cx="0" cy="0" r="1" gradientUnits="userSpaceOnUse" gradientTransform="translate(42.0002 49.9999) rotate(90) scale(54.1236 45.7348)">
<stop stop-color="#6496AE"/>
<stop offset="0.0001" stop-color="#6496AE"/>
<stop offset="1" stop-color="#97BDCF"/>
</radialGradient>
<radialGradient id="paint3_radial_39_1201" cx="0" cy="0" r="1" gradientUnits="userSpaceOnUse" gradientTransform="translate(31.9526 32.7555) rotate(90) scale(10.5247 13.6276)">
<stop stop-color="#6496AE"/>
<stop offset="0.0001" stop-color="#6496AE"/>
<stop offset="1" stop-color="#97BDCF"/>
</radialGradient>
<radialGradient id="paint4_radial_39_1201" cx="0" cy="0" r="1" gradientUnits="userSpaceOnUse" gradientTransform="translate(31.9513 32.4675) rotate(90) scale(23.3158 23.3156)">
<stop stop-color="#6496AE"/>
<stop offset="0.0001" stop-color="#6496AE"/>
<stop offset="1" stop-color="#97BDCF"/>
</radialGradient>
<clipPath id="clip0_39_1201">
<rect width="92" height="100" fill="white"/>
</clipPath>
</defs>
</svg>
