<svg width="100" height="100" viewBox="0 0 100 100" fill="none" xmlns="http://www.w3.org/2000/svg">
<g clip-path="url(#clip0_40_1254)">
<path d="M95.2944 88.1837H94.2047C93.7186 87.429 93.2924 86.6231 92.9428 85.7786C92.6332 85.0309 91.7764 84.676 91.0289 84.9854C90.2814 85.295 89.9263 86.1518 90.2357 86.8993C90.4168 87.3368 90.6193 87.7636 90.8326 88.1837H33.3699C32.9273 88.1837 32.4996 88.2464 32.0931 88.3612C31.1773 86.8085 29.9402 83.9211 29.9402 79.64C29.9402 79.0013 29.9685 78.3716 30.0236 77.7546H58.0894C58.8986 77.7546 59.5542 77.0988 59.5542 76.2898C59.5542 75.4808 58.8986 74.8249 58.0894 74.8249H31.2574L34.6994 71.0964H90.825C90.2222 72.2796 89.7498 73.5284 89.4148 74.8249H70.1599C69.3507 74.8249 68.695 75.4808 68.695 76.2898C68.695 77.0988 69.3507 77.7546 70.1599 77.7546H88.9021C88.8447 78.35 88.8115 78.951 88.8089 79.5572C88.8054 80.3662 89.4586 81.0248 90.2678 81.0283H90.274C91.0801 81.0283 91.7352 80.3766 91.7387 79.5697C91.7516 76.4937 92.6041 73.571 94.202 71.0964H95.2946C97.8893 71.0964 100.001 68.9852 100.001 66.3904C100.001 63.7957 97.8893 61.6845 95.2946 61.6845H76.9828L93.76 44.9071C94.7127 43.9546 95.2372 42.6881 95.2372 41.3411C95.2372 39.994 94.7125 38.7276 93.7602 37.7754L93.3914 37.4064C92.4389 36.4541 91.1724 35.9293 89.8254 35.9293C88.5968 35.9293 87.4361 36.367 86.5187 37.1664L83.9257 34.5734L84.8085 33.6906C85.9935 32.5058 86.3495 30.738 85.7153 29.187L84.5222 26.2682C84.1106 25.2615 83.2302 24.5317 82.1655 24.3127L80.1282 22.2754C79.5559 21.7033 78.6285 21.7033 78.0564 22.2754C77.4844 22.8474 77.4844 23.775 78.0564 24.3469L79.0588 25.3492L55.9726 48.4353L49.1832 41.6461L72.2697 18.5599L73.1683 19.4585C73.4542 19.7447 73.8292 19.8876 74.2041 19.8876C74.5789 19.8876 74.9539 19.7447 75.24 19.4585C75.8121 18.8865 75.8121 17.9589 75.2398 17.387L73.3062 15.4534C73.0872 14.3887 72.3574 13.5083 71.3507 13.0965C71.3505 13.0965 71.3505 13.0965 71.3505 13.0965L68.4319 11.9034C66.8815 11.2696 65.1133 11.625 63.9283 12.81L63.0455 13.6928L60.4521 11.0998C61.2515 10.1824 61.689 9.02167 61.689 7.79314C61.689 6.44605 61.1644 5.17963 60.2121 4.22747L59.8433 3.85852C58.8908 2.90616 57.6243 2.38135 56.2772 2.38135C54.9302 2.38135 53.6637 2.90596 52.7112 3.85852L34.4814 22.0883C33.5289 23.0408 33.0043 24.3072 33.0043 25.6543C33.0043 27.0014 33.5289 28.2678 34.4814 29.2202L34.8498 29.5888C35.8024 30.5413 37.0688 31.0659 38.4159 31.0659C39.6446 31.0659 40.8052 30.6282 41.7228 29.8288L44.3159 32.4222L43.4329 33.3052C42.2481 34.49 41.8923 36.2578 42.5263 37.8086L43.7195 40.7272C44.1267 41.7233 44.9931 42.4477 46.0427 42.6749L38.6977 51.4365C36.8848 50.6883 34.718 51.049 33.247 52.5201C32.3023 53.4649 31.782 54.7209 31.782 56.0569C31.782 56.6549 31.8871 57.2366 32.0869 57.7817L28.7558 60.8568C28.1614 61.4056 28.1243 62.3322 28.6732 62.9267C28.9618 63.2396 29.3552 63.398 29.7499 63.398C30.1052 63.398 30.4615 63.2695 30.7431 63.0095L33.8213 60.1681L37.4502 63.797L10.1731 93.3453C9.39516 94.1879 8.33518 94.6646 7.18849 94.6877C6.04003 94.7098 4.96365 94.2767 4.1527 93.4656C3.34175 92.6545 2.90776 91.5765 2.93062 90.4298C2.95347 89.2831 3.43023 88.2231 4.27302 87.4452L25.6694 67.6934C26.2638 67.1445 26.3009 66.2178 25.752 65.6234C25.2036 65.0291 24.2768 64.9918 23.6821 65.5408L2.28568 85.2926C0.85168 86.6165 0.0405367 88.42 0.00147365 90.3712C-0.0375894 92.3224 0.701093 94.1572 2.08099 95.5371C3.42633 96.8826 5.20369 97.6182 7.10001 97.6182C7.14884 97.6182 7.19786 97.6178 7.24689 97.6168C9.19808 97.5778 11.0018 96.7666 12.3255 95.3326L21.1049 85.8221C21.8207 88.2763 22.8307 89.9593 23.46 90.8441C24.0952 91.7373 25.1337 92.2705 26.238 92.2705H28.7058C28.679 92.4732 28.6638 92.6796 28.6638 92.8896C28.6638 95.4844 30.7749 97.5955 33.3697 97.5955H95.2944C97.8891 97.5955 100 95.4844 100 92.8896C100 90.2949 97.8891 88.1837 95.2944 88.1837ZM97.0704 66.3904C97.0704 67.3697 96.2737 68.1666 95.2942 68.1666H37.4039L39.8389 65.5289C40.394 65.7316 40.9778 65.8342 41.5618 65.8342C42.7308 65.8342 43.8991 65.4265 44.8357 64.6142H95.2944C96.2737 64.6142 97.0704 65.4111 97.0704 66.3904ZM52.878 49.4845L44.396 56.5954L41.0235 53.2231L48.1344 44.7409L52.878 49.4845ZM46.4877 61.6845C46.6459 60.7597 46.5445 59.7989 46.1822 58.9208L54.9436 51.5758C55.171 52.6252 55.8954 53.4918 56.8913 53.899L59.8101 55.0922C60.3205 55.3008 60.8543 55.4022 61.3832 55.4022C62.4613 55.4022 63.5188 54.9803 64.3135 54.1856L65.1965 53.3026L67.7897 55.8958C66.3704 57.5274 66.176 59.8603 67.2067 61.6843H46.4877V61.6845ZM89.8256 38.8592C90.3902 38.8592 90.9207 39.0791 91.3197 39.478L91.6885 39.8469C92.0877 40.2459 92.3074 40.7768 92.3074 41.3411C92.3074 41.9055 92.0877 42.4362 91.6883 42.8354L73.4583 61.0654C73.0593 61.4644 72.5284 61.6843 71.9642 61.6843C71.3999 61.6843 70.869 61.4646 70.47 61.0654L70.1015 60.6968C69.2774 59.8728 69.2774 58.5321 70.1015 57.7081L88.3314 39.4781C88.7302 39.0789 89.2611 38.8592 89.8256 38.8592ZM84.4374 39.2285L69.8517 53.8143L67.2682 51.231L81.854 36.6451L84.4374 39.2285ZM57.8935 50.6578L81.2807 27.2706C81.3549 27.1963 81.4358 27.1749 81.5045 27.1749C81.5297 27.1749 81.5532 27.1778 81.5739 27.1819C81.6514 27.1975 81.7557 27.244 81.81 27.3772L83.0032 30.296C83.1895 30.7517 83.085 31.2708 82.7368 31.6189L62.2418 52.1143C61.8941 52.4621 61.3746 52.5668 60.9189 52.3805L58.0003 51.1873C57.8671 51.133 57.8206 51.0289 57.805 50.9512C57.7894 50.8734 57.7919 50.7593 57.8935 50.6578ZM38.4163 28.1366C37.8518 28.1366 37.3211 27.9169 36.9221 27.5176L36.5535 27.1491C36.1543 26.75 35.9346 26.2194 35.9346 25.6549C35.9346 25.0903 36.1543 24.5598 36.5535 24.1606L54.7835 5.93061C55.1825 5.53139 55.7134 5.31166 56.2776 5.31166C56.8423 5.31166 57.3728 5.53159 57.7718 5.93042L58.1406 6.29937C58.5398 6.6984 58.7595 7.22927 58.7595 7.79373C58.7595 8.35819 58.5398 8.88886 58.1404 9.28808L39.9106 27.518C39.5114 27.9167 38.9807 28.1366 38.4163 28.1366ZM43.8042 27.7672L58.3902 13.1813L60.9736 15.7647L46.3877 30.3507L43.8042 27.7672ZM45.5046 35.3767L65.9998 14.8815C66.2332 14.6481 66.5438 14.5241 66.8606 14.5241C67.0161 14.5241 67.1729 14.554 67.3229 14.6153L70.2415 15.8085C70.3745 15.8628 70.421 15.9669 70.4366 16.0446C70.4522 16.1224 70.4495 16.2362 70.3479 16.3378L46.9609 39.725C46.8593 39.8266 46.7455 39.8291 46.6675 39.8137C46.59 39.7981 46.4859 39.7516 46.4316 39.6184L45.2382 36.6996C45.0521 36.2441 45.1566 35.725 45.5046 35.3767ZM34.7119 56.0569C34.7119 55.5036 34.9275 54.983 35.3188 54.5918C36.1268 53.784 37.4411 53.784 38.2491 54.5918L43.0267 59.3694C43.8347 60.1774 43.8347 61.4919 43.0267 62.2997C42.2187 63.1076 40.9042 63.1076 40.0964 62.2997L35.319 57.5221C34.9275 57.1307 34.7119 56.6104 34.7119 56.0569ZM25.8477 89.146C25.1977 88.2321 24.05 86.2661 23.5016 83.2262L27.013 79.4226C27.0124 79.4951 27.0106 79.5674 27.0106 79.64C27.0106 84.1569 28.2362 87.3974 29.2827 89.3407H26.2384C26.0803 89.3407 25.9344 89.2681 25.8477 89.146ZM95.2944 94.6658H33.3699C32.3906 94.6658 31.5937 93.8689 31.5937 92.8896C31.5937 91.9101 32.3906 91.1134 33.3699 91.1134H95.2944C96.2739 91.1134 97.0706 91.9103 97.0706 92.8896C97.0704 93.8691 96.2737 94.6658 95.2944 94.6658Z" fill="url(#paint0_radial_40_1254)"/>
<path d="M40.9824 81.4785C40.1734 81.4785 39.5176 82.1344 39.5176 82.9434C39.5176 83.7524 40.1734 84.4082 40.9824 84.4082H75.1093C75.9185 84.4082 76.5741 83.7524 76.5741 82.9434C76.5741 82.1344 75.9185 81.4785 75.1093 81.4785H40.9824Z" fill="url(#paint1_radial_40_1254)"/>
</g>
<defs>
<radialGradient id="paint0_radial_40_1254" cx="0" cy="0" r="1" gradientUnits="userSpaceOnUse" gradientTransform="translate(50.0003 49.9998) rotate(90) scale(51.5457 54.124)">
<stop stop-color="#6496AE"/>
<stop offset="0.0001" stop-color="#6496AE"/>
<stop offset="1" stop-color="#97BDCF"/>
</radialGradient>
<radialGradient id="paint1_radial_40_1254" cx="0" cy="0" r="1" gradientUnits="userSpaceOnUse" gradientTransform="translate(58.0459 82.9434) rotate(90) scale(1.58568 20.0564)">
<stop stop-color="#6496AE"/>
<stop offset="0.0001" stop-color="#6496AE"/>
<stop offset="1" stop-color="#97BDCF"/>
</radialGradient>
<clipPath id="clip0_40_1254">
<rect width="100" height="100" fill="white"/>
</clipPath>
</defs>
</svg>
