<svg width="100" height="100" viewBox="0 0 100 100" fill="none" xmlns="http://www.w3.org/2000/svg">
<g clip-path="url(#clip0_39_1237)">
<path d="M50 100C46.3232 100 43.332 97.0088 43.332 93.332V91.8266C34.485 90.4383 26.4609 86.3469 20.0563 79.9441C13.6531 73.5393 9.56172 65.515 8.17344 56.668H6.66797C4.88613 56.668 3.21152 55.9746 1.95234 54.7154C0.693359 53.4564 0 51.7818 0 50C0 46.3232 2.99121 43.332 6.66797 43.332H8.17344C9.56172 34.485 13.6531 26.4609 20.0559 20.0563C26.4607 13.6531 34.485 9.56172 43.332 8.17344V6.66797C43.332 2.99121 46.3232 0 50 0C53.6766 0 56.668 2.99121 56.668 6.66797V8.17344C65.5152 9.56172 73.5393 13.6531 79.9439 20.0559C80.6459 20.7578 81.3297 21.4906 81.9762 22.2338C82.5072 22.8441 82.443 23.7693 81.8326 24.3004C81.2223 24.8311 80.2969 24.7674 79.766 24.1566C79.1637 23.4645 78.5266 22.7816 77.8727 22.1277C71.6244 15.8812 63.7219 11.9982 55.0195 10.8986C54.2873 10.8061 53.7383 10.1832 53.7383 9.44531V6.66797C53.7383 4.60664 52.0613 2.92969 50 2.92969C47.9387 2.92969 46.2617 4.60664 46.2617 6.66797V9.44531C46.2617 10.1832 45.7127 10.8061 44.9805 10.8986C36.2783 11.9982 28.3758 15.8812 22.1275 22.1279C15.8812 28.376 11.9982 36.2785 10.8986 44.9807C10.8061 45.7129 10.1832 46.2619 9.44531 46.2619H6.66797C4.60664 46.2617 2.92969 47.9387 2.92969 50C2.92969 50.9992 3.31836 51.9381 4.02402 52.6439C4.72988 53.3496 5.66875 53.7385 6.66797 53.7385H9.44531C10.1832 53.7385 10.8061 54.2875 10.8986 55.0197C11.9982 63.7219 15.8812 71.6244 22.1279 77.8727C28.376 84.1189 36.2785 88.002 44.9807 89.1016C45.7129 89.1941 46.2619 89.817 46.2619 90.5549V93.3322C46.2619 95.3936 47.9389 97.0705 50.0002 97.0705C52.0615 97.0705 53.7385 95.3936 53.7385 93.3322V90.5549C53.7385 89.817 54.2875 89.1941 55.0197 89.1016C63.7221 88.002 71.6246 84.1189 77.8729 77.8723C84.1189 71.6244 88.002 63.7219 89.1018 55.0195C89.1943 54.2873 89.817 53.7383 90.5549 53.7383H93.3324C95.3938 53.7383 97.0707 52.0613 97.0707 50C97.0707 49.0008 96.682 48.0619 95.9762 47.3561C95.2705 46.6504 94.3314 46.2615 93.3324 46.2615H90.5547C89.8168 46.2615 89.1939 45.7125 89.1016 44.9803C88.3586 39.1016 86.3572 33.6082 83.1529 28.6525C82.7137 27.9732 82.9082 27.0664 83.5877 26.6271C84.2672 26.1879 85.174 26.3824 85.6131 27.0619C88.8242 32.0281 90.9117 37.4953 91.8268 43.3318H93.3322C95.1139 43.3318 96.7885 44.0252 98.0479 45.2844C99.3066 46.5438 100 48.2184 100 50C100 53.6768 97.0088 56.668 93.332 56.668H91.8264C90.4381 65.5152 86.3467 73.5393 79.9439 79.9438C73.5393 86.3469 65.515 90.4381 56.6678 91.8266V93.332C56.668 97.0088 53.6766 100 50 100ZM55.2037 84.5863C54.857 84.5863 54.5186 84.4631 54.2514 84.2346C53.9262 83.9563 53.7389 83.5496 53.7389 83.1215V78.5211C53.7389 76.4594 52.0617 74.782 50 74.782C47.9383 74.782 46.2611 76.4594 46.2611 78.5211V83.1215C46.2611 83.5494 46.074 83.9563 45.7486 84.2346C45.4234 84.5129 44.993 84.635 44.5697 84.5687C37.2313 83.4203 30.5574 80.0184 25.2697 74.7305C19.982 69.4426 16.5799 62.7687 15.4314 55.4305C15.3652 55.0074 15.4873 54.5768 15.7656 54.2516C16.0439 53.9262 16.4506 53.7391 16.8787 53.7391H21.4791C23.5408 53.7391 25.218 52.0619 25.218 50.0002C25.218 47.9385 23.5408 46.2613 21.4791 46.2613H16.8785C16.4506 46.2613 16.0438 46.0742 15.7654 45.7488C15.4871 45.4236 15.365 44.993 15.4313 44.5699C16.5797 37.2314 19.9816 30.5576 25.2695 25.2699C30.5574 19.9822 37.2313 16.5801 44.5695 15.4316C44.9926 15.3652 45.4232 15.4877 45.7484 15.7658C46.0738 16.0441 46.2609 16.4508 46.2609 16.8789V21.4793C46.2609 23.541 47.9381 25.2182 49.9998 25.2182C52.0615 25.2182 53.7387 23.541 53.7387 21.4793V16.8785C53.7387 16.4506 53.926 16.0438 54.2512 15.7654C54.5766 15.4871 55.0072 15.3648 55.4301 15.4313C62.7684 16.5797 69.4422 19.9816 74.7299 25.2695C80.0178 30.5574 83.4197 37.2313 84.5684 44.5695C84.6346 44.9926 84.5123 45.4232 84.234 45.7484C83.9557 46.0738 83.549 46.2609 83.1211 46.2609H78.5207C76.459 46.2609 74.7818 47.9381 74.7818 49.9998C74.7818 52.0615 76.459 53.7387 78.5207 53.7387H83.1211C83.549 53.7387 83.9557 53.9258 84.234 54.2512C84.5123 54.5764 84.6346 55.007 84.5684 55.4301C83.4197 62.7686 80.0178 69.4424 74.7299 74.7301C69.4422 80.018 62.7684 83.4199 55.4301 84.5684C55.3547 84.5805 55.2789 84.5863 55.2037 84.5863ZM50 71.8523C53.677 71.8523 56.6686 74.8439 56.6686 78.5211V81.3633C62.7232 80.0828 68.2223 77.0951 72.6586 72.6588C77.0951 68.2223 80.0828 62.7234 81.3631 56.6686H78.5209C74.8439 56.6686 71.8523 53.6771 71.8523 50C71.8523 46.3229 74.8438 43.3314 78.5209 43.3314H81.3631C80.0826 37.2768 77.0949 31.7777 72.6586 27.3412C68.2223 22.9049 62.7232 19.9172 56.6686 18.6367V21.4789C56.6686 25.1561 53.6771 28.1475 50 28.1475C46.3229 28.1475 43.3314 25.1561 43.3314 21.4789V18.6367C37.2768 19.9172 31.7777 22.9049 27.3412 27.3412C22.9049 31.7777 19.9172 37.2766 18.6367 43.3314H21.4789C25.1561 43.3314 28.1475 46.3229 28.1475 50C28.1475 53.6771 25.1561 56.6686 21.4789 56.6686H18.6367C19.9172 62.7232 22.9049 68.2223 27.3412 72.6588C31.7777 77.0951 37.2766 80.0828 43.3314 81.3633V78.5211C43.3314 74.8439 46.3229 71.8523 50 71.8523Z" fill="url(#paint0_radial_39_1237)"/>
<path d="M48.4768 67.3653C46.2399 67.3653 44.1713 66.3511 42.8012 64.5827L39.0846 59.7882C38.5889 59.1489 38.7055 58.2286 39.3449 57.7331C39.9842 57.2374 40.9045 57.354 41.4 57.9935L45.1168 62.7884C45.928 63.8354 47.1526 64.4358 48.4768 64.4358C48.5914 64.4358 48.6936 64.4325 48.7893 64.4257C50.2106 64.321 51.4803 63.5167 52.1817 62.2743L64.7854 39.9556C65.3447 38.9659 65.4852 37.8185 65.1807 36.7239C64.8762 35.6294 64.1637 34.719 63.1744 34.1604C62.1854 33.6019 61.0375 33.4618 59.943 33.7665C58.8485 34.0712 57.9377 34.7837 57.3793 35.7729L49.0043 50.603C48.7631 51.03 48.3244 51.3079 47.8354 51.3436C47.3469 51.3796 46.8719 51.1679 46.5713 50.7806L42.2783 45.2454C41.5824 44.3468 40.5787 43.7739 39.452 43.6312C38.3252 43.4892 37.21 43.7935 36.3119 44.4897C35.4137 45.1854 34.8406 46.1892 34.6979 47.3159C34.5551 48.4429 34.86 49.5579 35.5563 50.456L37.8203 53.3782C38.3158 54.0177 38.199 54.9378 37.5596 55.4333C36.9203 55.9288 36 55.812 35.5045 55.1726L33.2408 52.2507C32.0653 50.7347 31.5504 48.8513 31.7914 46.9477C32.0324 45.0442 33.0006 43.3489 34.5174 42.1739C36.0334 40.9985 37.9166 40.4841 39.8201 40.7247C41.7237 40.9657 43.419 41.9337 44.594 43.4507L47.5365 47.2446L54.8283 34.3325C55.7715 32.6618 57.309 31.4585 59.1576 30.944C61.0061 30.4294 62.9444 30.6657 64.6149 31.6093C66.2858 32.5526 67.4893 34.0903 68.0033 35.9388C68.5176 37.7878 68.2807 39.7261 67.3362 41.3966L54.7326 63.7145C53.5487 65.8124 51.4055 67.1708 49.0002 67.3478C48.8311 67.3597 48.6612 67.3653 48.4768 67.3653Z" fill="url(#paint1_radial_39_1237)"/>
</g>
<defs>
<radialGradient id="paint0_radial_39_1237" cx="0" cy="0" r="1" gradientUnits="userSpaceOnUse" gradientTransform="translate(50 50) rotate(90) scale(54.1237)">
<stop stop-color="#6496AE"/>
<stop offset="0.0001" stop-color="#6496AE"/>
<stop offset="1" stop-color="#97BDCF"/>
</radialGradient>
<radialGradient id="paint1_radial_39_1237" cx="0" cy="0" r="1" gradientUnits="userSpaceOnUse" gradientTransform="translate(50.0013 49.0215) rotate(90) scale(19.8567 19.7745)">
<stop stop-color="#6496AE"/>
<stop offset="0.0001" stop-color="#6496AE"/>
<stop offset="1" stop-color="#97BDCF"/>
</radialGradient>
<clipPath id="clip0_39_1237">
<rect width="100" height="100" fill="white"/>
</clipPath>
</defs>
</svg>
