<svg width="95" height="100" viewBox="0 0 95 100" fill="none" xmlns="http://www.w3.org/2000/svg">
<g clip-path="url(#clip0_40_1246)">
<path d="M45.0057 55.5405C40.1609 55.5405 36.2195 59.4819 36.2195 64.3267V66.7796C34.385 66.9796 32.9521 68.5368 32.9521 70.4235V85.1075C32.9521 87.1294 34.5971 88.7743 36.6191 88.7743H53.3922C55.4141 88.7743 57.059 87.1294 57.059 85.1075V70.4235C57.059 68.5368 55.6262 66.9794 53.7916 66.7794V64.3265C53.792 59.4819 49.8504 55.5405 45.0057 55.5405ZM45.0057 58.4702C48.235 58.4702 50.8621 61.0974 50.8621 64.3267V66.7567H39.1492V64.3267C39.1492 61.0974 41.7766 58.4702 45.0057 58.4702ZM54.1295 70.4235V85.1075C54.1295 85.514 53.7988 85.8446 53.3924 85.8446H36.6193C36.2129 85.8446 35.882 85.514 35.882 85.1075V70.4235C35.882 70.0171 36.2127 69.6864 36.6193 69.6864H53.3924C53.7988 69.6864 54.1295 70.0171 54.1295 70.4235Z" fill="url(#paint0_radial_40_1246)"/>
<path d="M46.3062 78.2814C47.2193 77.7769 47.8089 76.7586 47.6824 75.6158C47.5459 74.3822 46.5462 73.3828 45.3127 73.2465C43.6877 73.067 42.3123 74.3344 42.3123 75.923C42.3123 76.9388 42.875 77.8226 43.7054 78.2814L42.2414 81.6873C42.1164 81.9779 42.3297 82.3017 42.6461 82.3017H47.3658C47.6822 82.3017 47.8953 81.9781 47.7705 81.6873L46.3062 78.2814Z" fill="url(#paint1_radial_40_1246)"/>
<path d="M63.4883 24.2681H26.5225C25.7135 24.2681 25.0576 24.9239 25.0576 25.7329C25.0576 26.5419 25.7135 27.1978 26.5225 27.1978H63.4883C64.2973 27.1978 64.9531 26.5419 64.9531 25.7329C64.9531 24.9239 64.2973 24.2681 63.4883 24.2681Z" fill="url(#paint2_radial_40_1246)"/>
<path d="M63.4883 34.2915H34.335C33.526 34.2915 32.8701 34.9474 32.8701 35.7563C32.8701 36.5653 33.526 37.2212 34.335 37.2212H63.4883C64.2973 37.2212 64.9531 36.5653 64.9531 35.7563C64.9531 34.9474 64.2973 34.2915 63.4883 34.2915Z" fill="url(#paint3_radial_40_1246)"/>
<path d="M88.9723 77.468C88.1633 77.468 87.5074 78.1238 87.5074 78.9328V94.1109C87.5074 95.7428 86.1799 97.0705 84.5479 97.0705H5.45176C3.81992 97.0705 2.49219 95.743 2.49219 94.1109V39.6043C2.49219 37.9725 3.81973 36.6447 5.45176 36.6447H23.3689C24.6441 36.6447 25.7723 37.4574 26.1762 38.667L28.7063 46.2441C28.9059 46.842 29.4654 47.2451 30.0957 47.2451H58.8041C59.6131 47.2451 60.2689 46.5893 60.2689 45.7803C60.2689 44.9713 59.6131 44.3154 58.8041 44.3154H31.1508L28.9549 37.7393C28.1514 35.3322 25.9064 33.715 23.3689 33.715H13.9814V21.5928C13.9814 20.7838 13.3256 20.1279 12.5166 20.1279C11.7076 20.1279 11.0518 20.7838 11.0518 21.5928V33.715H5.45176C2.20449 33.715 -0.4375 36.3568 -0.4375 39.6043V94.1109C-0.4375 97.3582 2.2043 100 5.45176 100H84.5479C87.7951 100 90.4371 97.3584 90.4371 94.1109V78.9328C90.4371 78.1238 89.7812 77.468 88.9723 77.468Z" fill="url(#paint4_radial_40_1246)"/>
<path d="M84.5479 44.3152H77.0725V18.3166C77.0725 17.9279 76.918 17.5553 76.6432 17.2805L59.7805 0.428711C59.7727 0.421094 59.7643 0.414453 59.7563 0.406836C59.7297 0.381445 59.7029 0.356445 59.6746 0.333008C59.6637 0.324023 59.6518 0.316211 59.6404 0.307617C59.6139 0.286914 59.5873 0.266211 59.5592 0.247461C59.5498 0.241211 59.54 0.236133 59.5305 0.230078C59.4994 0.210352 59.4684 0.191016 59.4357 0.173438C59.4291 0.169922 59.4221 0.166992 59.4152 0.163477C59.3795 0.145117 59.3434 0.127344 59.306 0.111914C59.3014 0.109961 59.2963 0.108594 59.2916 0.106641C59.2523 0.0908203 59.2125 0.0761719 59.1715 0.0636719C59.166 0.0619141 59.1602 0.0609375 59.1547 0.059375C59.1146 0.0476562 59.0744 0.0371094 59.033 0.0289063C59.0207 0.0263672 59.0082 0.0253906 58.9961 0.0232422C58.9613 0.0171875 58.9266 0.0111328 58.891 0.00761719C58.8428 0.00253906 58.7939 0 58.7449 0H16.6764C13.575 0 11.0518 2.52324 11.0518 5.62461V15.2084C11.0518 16.0174 11.7076 16.6732 12.5166 16.6732C13.3256 16.6732 13.9814 16.0174 13.9814 15.2084V5.62461C13.9814 4.13867 15.1904 2.92969 16.6764 2.92969H57.2801V14.1574C57.2801 17.2586 59.8029 19.7814 62.9039 19.7814H74.1426V44.3152H65.1879C64.3789 44.3152 63.723 44.9711 63.723 45.7801C63.723 46.5891 64.3789 47.2449 65.1879 47.2449H84.5477C86.1795 47.2449 87.5072 48.5725 87.5072 50.2045V72.5488C87.5072 73.3578 88.1631 74.0137 88.9721 74.0137C89.7811 74.0137 90.4369 73.3578 90.4369 72.5488V50.2043C90.4371 46.957 87.7951 44.3152 84.5479 44.3152ZM60.2098 14.1574V4.99961L72.0695 16.8518H62.9039C61.4184 16.8518 60.2098 15.6432 60.2098 14.1574Z" fill="url(#paint5_radial_40_1246)"/>
</g>
<defs>
<radialGradient id="paint0_radial_40_1246" cx="0" cy="0" r="1" gradientUnits="userSpaceOnUse" gradientTransform="translate(45.0056 72.1574) rotate(90) scale(17.9874 13.0475)">
<stop stop-color="#6496AE"/>
<stop offset="0.0001" stop-color="#6496AE"/>
<stop offset="1" stop-color="#97BDCF"/>
</radialGradient>
<radialGradient id="paint1_radial_40_1246" cx="0" cy="0" r="1" gradientUnits="userSpaceOnUse" gradientTransform="translate(45.0059 77.7656) rotate(90) scale(4.91024 3.0318)">
<stop stop-color="#6496AE"/>
<stop offset="0.0001" stop-color="#6496AE"/>
<stop offset="1" stop-color="#97BDCF"/>
</radialGradient>
<radialGradient id="paint2_radial_40_1246" cx="0" cy="0" r="1" gradientUnits="userSpaceOnUse" gradientTransform="translate(45.0054 25.7329) rotate(90) scale(1.58566 21.5929)">
<stop stop-color="#6496AE"/>
<stop offset="0.0001" stop-color="#6496AE"/>
<stop offset="1" stop-color="#97BDCF"/>
</radialGradient>
<radialGradient id="paint3_radial_40_1246" cx="0" cy="0" r="1" gradientUnits="userSpaceOnUse" gradientTransform="translate(48.9116 35.7563) rotate(90) scale(1.58566 17.3645)">
<stop stop-color="#6496AE"/>
<stop offset="0.0001" stop-color="#6496AE"/>
<stop offset="1" stop-color="#97BDCF"/>
</radialGradient>
<radialGradient id="paint4_radial_40_1246" cx="0" cy="0" r="1" gradientUnits="userSpaceOnUse" gradientTransform="translate(44.9998 60.0641) rotate(90) scale(43.2298 49.1847)">
<stop stop-color="#6496AE"/>
<stop offset="0.0001" stop-color="#6496AE"/>
<stop offset="1" stop-color="#97BDCF"/>
</radialGradient>
<radialGradient id="paint5_radial_40_1246" cx="0" cy="0" r="1" gradientUnits="userSpaceOnUse" gradientTransform="translate(50.7443 37.0068) rotate(90) scale(40.0589 42.9662)">
<stop stop-color="#6496AE"/>
<stop offset="0.0001" stop-color="#6496AE"/>
<stop offset="1" stop-color="#97BDCF"/>
</radialGradient>
<clipPath id="clip0_40_1246">
<rect width="95" height="100" fill="white"/>
</clipPath>
</defs>
</svg>
