<svg width="22" height="28" viewBox="0 0 22 28" fill="none" xmlns="http://www.w3.org/2000/svg">
<path d="M10.9999 0C5.40839 0 0.859375 4.54902 0.859375 10.1405C0.859375 17.0797 9.93416 27.2668 10.3205 27.6971C10.6834 28.1013 11.317 28.1006 11.6793 27.6971C12.0657 27.2668 21.1405 17.0797 21.1405 10.1405C21.1403 4.54902 16.5914 0 10.9999 0ZM10.9999 15.2424C8.18668 15.2424 5.89801 12.9537 5.89801 10.1405C5.89801 7.32725 8.18673 5.03858 10.9999 5.03858C13.8131 5.03858 16.1018 7.3273 16.1018 10.1405C16.1018 12.9538 13.8131 15.2424 10.9999 15.2424Z" fill="url(#paint0_radial_39_19)"/>
<defs>
<radialGradient id="paint0_radial_39_19" cx="0" cy="0" r="1" gradientUnits="userSpaceOnUse" gradientTransform="translate(10.9999 14) rotate(90) scale(15.1546 10.9769)">
<stop stop-color="#6496AE"/>
<stop offset="0.0001" stop-color="#6496AE"/>
<stop offset="1" stop-color="#97BDCF"/>
</radialGradient>
</defs>
</svg>
