<svg width="28" height="28" viewBox="0 0 28 28" fill="none" xmlns="http://www.w3.org/2000/svg">
<path d="M23.9518 11.7497C23.9855 7.80206 20.6232 4.1831 16.4569 3.68267C16.374 3.67284 16.2837 3.65788 16.1882 3.64206C15.9819 3.60788 15.7686 3.57275 15.5534 3.57275C14.6995 3.57275 14.4712 4.17258 14.4111 4.53032C14.3527 4.87814 14.4084 5.17023 14.5765 5.39884C14.8593 5.78336 15.3569 5.85162 15.7565 5.90632C15.8737 5.92249 15.9842 5.93754 16.0767 5.95832C19.82 6.79475 21.0804 8.1098 21.6964 11.8213C21.7115 11.912 21.7183 12.0237 21.7255 12.1422C21.7523 12.5859 21.8084 13.5089 22.8007 13.5089H22.8008C22.8834 13.5089 22.9722 13.5018 23.0646 13.4877C23.9887 13.3473 23.9597 12.5035 23.9458 12.0981C23.9419 11.984 23.9382 11.876 23.9478 11.8041C23.9504 11.7861 23.9517 11.7679 23.9518 11.7497Z" fill="url(#paint0_radial_39_33)"/>
<path d="M15.311 2.23374C15.4218 2.24174 15.5268 2.24939 15.6142 2.26278C21.7611 3.20809 24.5879 6.12044 25.3713 12.3154C25.3846 12.4207 25.3867 12.5491 25.3889 12.6851C25.3967 13.1691 25.4128 14.176 26.4941 14.1969L26.5277 14.1972C26.8668 14.1972 27.1365 14.095 27.3295 13.893C27.6661 13.541 27.6426 13.0179 27.6237 12.5976C27.6191 12.4944 27.6146 12.3973 27.6157 12.3123C27.6939 5.97644 22.2096 0.23113 15.8794 0.0174783C15.8531 0.0166087 15.8281 0.018 15.8028 0.0215652C15.7904 0.0233913 15.7673 0.0256522 15.7278 0.0256522C15.6647 0.0256522 15.5871 0.0201739 15.5047 0.0146087C15.4051 0.00782609 15.2923 0 15.1778 0C14.1697 0 13.9781 0.716522 13.9536 1.14365C13.8971 2.13078 14.852 2.20026 15.311 2.23374Z" fill="url(#paint1_radial_39_33)"/>
<path d="M25.0751 20.322C24.9444 20.2222 24.8093 20.1189 24.6828 20.017C24.0116 19.4769 23.2976 18.9791 22.6071 18.4976C22.4638 18.3978 22.3205 18.2979 22.1777 18.1977C21.2932 17.5764 20.498 17.2745 19.7467 17.2745C18.7348 17.2745 17.8525 17.8336 17.1243 18.9361C16.8017 19.4249 16.4103 19.6626 15.928 19.6626C15.6428 19.6626 15.3187 19.5812 14.9649 19.4206C12.1098 18.1259 10.0711 16.1408 8.90529 13.5206C8.34172 12.2541 8.52442 11.4263 9.51624 10.7526C10.0795 10.3703 11.1278 9.65865 11.0535 8.29587C10.9695 6.74831 7.55485 2.09187 6.11616 1.563C5.50703 1.339 4.86703 1.33691 4.2105 1.55778C2.55659 2.11378 1.36972 3.09022 0.777895 4.38135C0.205982 5.62891 0.231808 7.09378 0.85259 8.61761C2.6472 13.0233 5.17033 16.8646 8.35216 20.0344C11.4666 23.1373 15.2945 25.6791 19.7295 27.5887C20.1292 27.7607 20.5485 27.8546 20.8547 27.923C20.959 27.9465 21.0491 27.9665 21.1148 27.9845C21.1509 27.9943 21.1881 27.9996 21.2254 28L21.2604 28.0001C21.2605 28.0001 21.2604 28.0001 21.2606 28.0001C23.3465 28.0001 25.8511 26.094 26.6203 23.921C27.2942 22.0182 26.0638 21.0777 25.0751 20.322Z" fill="url(#paint2_radial_39_33)"/>
<path d="M16.2339 7.26639C15.8768 7.27543 15.1335 7.29386 14.8728 8.05082C14.7508 8.40456 14.7654 8.71169 14.9162 8.96369C15.1376 9.33343 15.5618 9.44673 15.9476 9.50891C17.3468 9.73343 18.0655 10.5072 18.2092 11.9437C18.276 12.6135 18.727 13.0813 19.3062 13.0813H19.3062C19.349 13.0813 19.3928 13.0787 19.4363 13.0734C20.1328 12.9906 20.4705 12.4788 20.44 11.5526C20.4511 10.5859 19.9452 9.48839 19.0848 8.61421C18.2214 7.73734 17.1806 7.24352 16.2339 7.26639Z" fill="url(#paint3_radial_39_33)"/>
<defs>
<radialGradient id="paint0_radial_39_33" cx="0" cy="0" r="1" gradientUnits="userSpaceOnUse" gradientTransform="translate(19.1704 8.54084) rotate(90) scale(5.37783 5.17607)">
<stop stop-color="#6496AE"/>
<stop offset="0.0001" stop-color="#6496AE"/>
<stop offset="1" stop-color="#97BDCF"/>
</radialGradient>
<radialGradient id="paint1_radial_39_33" cx="0" cy="0" r="1" gradientUnits="userSpaceOnUse" gradientTransform="translate(20.7921 7.09861) rotate(90) scale(7.68406 7.40514)">
<stop stop-color="#6496AE"/>
<stop offset="0.0001" stop-color="#6496AE"/>
<stop offset="1" stop-color="#97BDCF"/>
</radialGradient>
<radialGradient id="paint2_radial_39_33" cx="0" cy="0" r="1" gradientUnits="userSpaceOnUse" gradientTransform="translate(13.5903 14.6968) rotate(90) scale(14.4005 14.3136)">
<stop stop-color="#6496AE"/>
<stop offset="0.0001" stop-color="#6496AE"/>
<stop offset="1" stop-color="#97BDCF"/>
</radialGradient>
<radialGradient id="paint3_radial_39_33" cx="0" cy="0" r="1" gradientUnits="userSpaceOnUse" gradientTransform="translate(17.6164 10.1734) rotate(90) scale(3.14763 3.05846)">
<stop stop-color="#6496AE"/>
<stop offset="0.0001" stop-color="#6496AE"/>
<stop offset="1" stop-color="#97BDCF"/>
</radialGradient>
</defs>
</svg>
